HIERARCHY
ROOT Hips
{
	OFFSET 0.000000 0.000000 0.000000 
	CHANNELS 6 Xposition Yposition Zposition Yrotation Zrotation Xrotation 
	JOINT Lumbar
	{
		OFFSET 0.000000 0.000000 0.000000 
		CHANNELS 3 Zrotation Xrotation Yrotation
		JOINT Neck
		{
			OFFSET 0.000000 0.445665 0.000000 
			CHANNELS 3 Zrotation Xrotation Yrotation
			End Site
			{
				OFFSET 0.000000 0.227535 0.000000 
			}
		}
		JOINT RightShoulder
		{
			OFFSET 0.019635 0.377685 0.194865 
			CHANNELS 3 Zrotation Xrotation Yrotation
			JOINT RightElbow
			{
				OFFSET 0.000000 -0.243375 0.000000 
				CHANNELS 2 Zrotation Yrotation
				JOINT RightWrist
				{
					OFFSET 0.000000 -0.264825 0.000000 
					CHANNELS 2 Zrotation Xrotation
					End Site
					{
						OFFSET 0.006600 -0.176220 0.000990 
					}
				}
			}
		}
		JOINT LeftShoulder
		{
			OFFSET 0.019635 0.377685 -0.194865 
			CHANNELS 3 Zrotation Xrotation Yrotation
			JOINT LeftElbow
			{
				OFFSET 0.000000 -0.243375 0.000000 
				CHANNELS 2 Zrotation Yrotation
				JOINT LeftWrist
				{
					OFFSET 0.000000 -0.264825 0.000000 
					CHANNELS 2 Zrotation Xrotation
					End Site
					{
						OFFSET 0.006600 -0.176220 -0.000990 
					}
				}
			}
		}
	}
	JOINT RightHip
	{
		OFFSET 0.052140 -0.069960 0.075570 
		CHANNELS 3 Zrotation Xrotation Yrotation
		JOINT RightKnee
		{
			OFFSET 0.000000 -0.402270 0.000000 
			CHANNELS 1 Zrotation
			JOINT RightAnkle
			{
				OFFSET 0.000000 -0.404085 0.000000 
				CHANNELS 3 Zrotation Xrotation Yrotation
				End Site
				{
					OFFSET 0.204105 -0.089430 0.008415 
				}
			}
		}
	}
	JOINT LeftHip
	{
		OFFSET 0.052140 -0.069960 -0.075570 
		CHANNELS 3 Zrotation Xrotation Yrotation
		JOINT LeftKnee
		{
			OFFSET 0.000000 -0.402270 0.000000 
			CHANNELS 1 Zrotation
			JOINT LeftAnkle
			{
				OFFSET 0.000000 -0.404085 0.000000 
				CHANNELS 3 Zrotation Xrotation Yrotation
				End Site
				{
					OFFSET 0.204105 -0.089430 -0.008415 
				}
			}
		}
	}
}
MOTION
Frames: 17
Frame Time: 0.02
0.43803 0.69631 -0.07199 146.78625 0 -6.1403 17.95987 -7.64228 7.92003 -33.71901 -2.6391 4.61518 37.41277 11.40134 64.17113 44.81999 95.75166 25.76448 -0.96858 9.00335 14.59191 81.16816 5.51891 -161.55227 -79.60203 22.71948 48.58759 12.71542 1.42805 -11.92907 -35.60207 -5.3601 9.87239 63.38944 -1.7622 13.22303 -36.54847 -9.75983 2.12902 -2.84727
0.43826 0.69596 -0.07111 146.97875 0 -6.10035 17.66157 -7.33492 8.10293 -33.37475 -3.19404 3.94215 37.55499 11.40314 64.17157 46.16711 95.61944 26.06759 -0.93709 8.02729 15.77258 66.45891 5.69997 -145.91483 -79.77625 23.18313 49.14276 12.44809 1.16693 -13.00315 -34.96528 -5.17156 9.57424 64.03739 -1.79459 13.24682 -36.3486 -9.83438 1.96611 -4.46079
0.43854 0.6955 -0.07008 147.20117 0 -6.05476 17.31174 -6.96068 8.31594 -32.95069 -3.84449 3.12263 37.73389 11.40024 64.17087 47.79501 95.49142 26.45158 -0.90375 6.45461 17.1666 45.04633 6.42626 -124.06368 -79.67093 22.90592 49.83231 12.11056 0.48136 -14.31763 -34.31068 -5.00819 9.25125 64.74233 -1.7633 13.48172 -35.94191 -10.27859 1.7508 -5.90281
0.43879 0.69507 -0.06911 147.41712 0 -6.01521 16.98822 -6.61779 8.51041 -32.58731 -4.46063 2.35803 37.94382 11.4016 64.17118 49.31168 95.34773 26.79743 -0.87485 5.13814 18.46413 27.40873 6.98946 -105.82273 -79.67215 22.88453 50.45089 11.80472 0.00838 -15.50378 -33.67078 -4.83253 8.93786 65.4246 -1.75304 13.6146 -35.6423 -10.52784 1.56757 -7.3692
0.43906 0.6947 -0.06814 147.60205 0 -5.96042 16.65169 -6.26926 8.72709 -32.11532 -5.05669 1.62263 37.95523 11.40851 64.17292 50.76659 95.27697 27.16636 -0.82521 3.87699 19.7837 6.88652 7.19082 -84.40514 -79.7792 23.2364 51.11055 11.50024 -0.53874 -16.76911 -33.00257 -4.65847 8.62933 66.09754 -1.77637 13.77448 -35.28725 -10.87874 1.34954 -9.08305
0.43931 0.69419 -0.06714 147.86036 0 -5.93656 16.3307 -5.91787 8.90281 -31.85575 -5.69577 0.81556 38.38472 11.38453 64.16701 52.41064 95.03523 27.48455 -0.82548 2.38153 21.08205 -9.32288 8.25957 -68.04756 -79.59137 22.63715 51.71753 11.17569 -1.03506 -17.9291 -32.38612 -4.48785 8.30655 66.80148 -1.71487 13.92418 -35.00236 -11.11217 1.1916 -10.23002
0.43949 0.69334 -0.06611 148.29808 0 -5.99584 16.06068 -5.56629 8.97166 -32.1658 -6.61175 -0.35606 39.99631 11.42502 64.17685 54.55787 94.51642 27.82566 -0.89837 0.13889 22.47888 -11.60673 11.80711 -67.50483 -78.65832 19.41093 52.13749 10.81773 -1.29447 -18.71559 -31.95513 -4.32022 7.94127 67.5804 -1.43068 14.03726 -34.91613 -10.90908 1.21133 -9.88577
0.43965 0.69237 -0.06504 148.81165 0 -6.08721 15.80907 -5.21562 8.99488 -32.69998 -7.53584 -1.55816 42.01974 11.40187 64.17148 56.8815 93.80216 28.07527 -1.03121 -2.27754 23.80907 -9.40835 16.17258 -72.19258 -77.43058 15.27908 52.50145 10.44122 -1.48755 -19.39254 -31.56983 -4.15544 7.56573 68.38698 -1.0642 14.12448 -34.91585 -10.58063 1.2935 -8.96945
0.43982 0.69145 -0.06397 149.30065 0 -6.16625 15.55196 -4.87063 9.03099 -33.15508 -8.33411 -2.61149 43.8319 11.3167 64.15003 59.08433 93.03236 28.25138 -1.18289 -4.45207 25.02948 -9.53533 20.02358 -74.2582 -76.3408 11.67548 52.89667 10.06984 -1.70847 -20.13451 -31.13972 -3.99005 7.19941 69.17868 -0.73767 14.19649 -34.9053 -10.3251 1.34783 -8.28985
0.44001 0.69054 -0.06296 149.74828 0 -6.23537 15.28057 -4.49859 9.10447 -33.50908 -9.64215 -4.23371 45.75088 11.63569 64.22865 61.44597 92.81823 28.93069 -1.15049 -7.32512 26.84116 -8.68894 24.49218 -77.14377 -75.2443 7.5586 53.27185 9.70938 -1.9563 -20.81863 -30.81228 -3.8231 6.80751 69.98383 -0.39724 14.39242 -34.76503 -10.01442 1.39821 -7.69808
0.44014 0.68959 -0.06183 150.30048 0 -6.3331 15.04443 -4.18269 9.08489 -34.13056 -9.90069 -4.68369 47.53995 11.07225 64.09141 63.54339 91.46788 28.52093 -1.50253 -8.78916 27.41223 -8.70233 27.86626 -79.64429 -74.07061 4.29982 53.67398 9.32341 -2.1236 -21.59651 -30.27976 -3.65911 6.4736 70.76472 -0.06818 14.31789 -34.91931 -9.78472 1.47217 -6.7956
0.44016 0.68851 -0.06038 151.11635 0 -6.49956 14.89758 -4.0333 8.85412 -35.41432 -7.15903 -1.82666 48.89991 8.31591 63.38131 64.61318 86.4289 25.28803 -3.01631 -6.20902 24.49042 -12.30411 27.97408 -79.8266 -72.97573 3.68049 54.16088 8.86621 -2.10911 -22.63777 -29.18974 -3.50794 6.24307 71.4884 0.21885 13.53243 -35.85596 -9.80208 1.59748 -5.12476
0.44012 0.6874 -0.05882 152.036 0 -6.69403 14.7866 -3.93863 8.52516 -36.96407 -3.37977 2.19861 50.10209 4.63828 62.4419 65.44968 80.35168 20.9372 -4.89423 -2.22153 20.33746 -16.87268 26.95656 -79.46687 -71.77888 3.9506 54.67643 8.38574 -2.00812 -23.77978 -27.8882 -3.35852 6.08156 72.18298 0.48964 12.46998 -37.0888 -9.90459 1.74425 -3.17172
0.44008 0.68632 -0.0573 152.91216 0 -6.87747 14.66159 -3.81147 8.21768 -38.40641 -0.13992 5.65077 51.36522 1.22373 61.60605 66.56815 75.1595 16.98463 -6.52916 1.05047 16.80103 -20.88557 26.48166 -79.37049 -70.47921 3.7853 55.18089 7.91927 -1.93001 -24.88952 -26.67036 -3.20466 5.92863 72.8802 0.76115 11.51273 -38.19379 -9.97123 1.8806 -1.38102
0.44017 0.68516 -0.05581 153.77511 0 -7.05547 14.52705 -3.71609 8.00431 -39.7992 3.38879 9.28645 52.71671 -1.56549 60.80914 66.98075 68.27075 13.46962 -8.4903 4.63198 13.01925 -25.22901 25.90844 -79.38217 -69.77725 3.7194 55.67687 7.43599 -1.92367 -25.93993 -25.50619 -3.06632 5.61042 73.62455 1.06313 10.63833 -39.27379 -10.02253 2.02234 0.57589
0.43998 0.68417 -0.05423 154.68971 0 -7.25026 14.42133 -3.56801 7.57474 -41.35599 6.55898 12.80954 53.80551 -5.83826 59.83083 68.76742 64.60304 8.80756 -9.86158 7.91104 9.46002 -29.18161 25.25639 -78.971 -67.83709 3.6699 56.19607 6.98454 -1.74254 -27.1375 -24.17987 -2.89601 5.6483 74.26163 1.29738 9.53053 -40.47424 -10.12667 2.15659 2.24335
0.43905 0.6837 -0.05235 155.71714 0 -7.49099 14.38045 -3.25696 6.55125 -43.29358 8.51522 15.80571 54.51506 -14.29316 58.80784 74.73315 70.67911 1.00614 -9.48071 9.96143 6.79152 -31.733 24.7074 -77.52762 -62.27032 3.45175 56.78901 6.60925 -1.14744 -28.73176 -22.45465 -2.6374 6.69291 74.62428 1.34268 7.80707 -41.94116 -10.36381 2.26952 3.06378
